<svg width="372" height="285" viewBox="0 0 372 285" fill="none" xmlns="http://www.w3.org/2000/svg">
<rect x="71.0537" y="35.5269" width="17.7634" height="17.7634" fill="white"/>
<rect x="71.0537" y="53.2903" width="17.7634" height="17.7634" fill="white"/>
<rect x="53.2903" y="71.0537" width="17.7634" height="17.7634" fill="white"/>
<rect x="53.2903" y="88.8172" width="17.7634" height="17.7634" fill="white"/>
<rect x="35.5269" y="124.344" width="17.7634" height="17.7634" fill="white"/>
<rect x="35.5269" y="106.581" width="17.7634" height="17.7634" fill="white"/>
<rect x="35.5269" y="213.161" width="17.7634" height="17.7634" fill="white"/>
<rect x="124.344" y="266.451" width="17.7634" height="17.7634" fill="white"/>
<rect x="106.581" y="266.451" width="17.7634" height="17.7634" fill="white"/>
<rect x="230.925" y="266.451" width="17.7634" height="17.7634" fill="white"/>
<rect x="213.161" y="266.451" width="17.7634" height="17.7634" fill="white"/>
<rect x="195.398" y="266.451" width="17.7634" height="17.7634" fill="white"/>
<rect x="177.634" y="266.451" width="17.7634" height="17.7634" fill="white"/>
<rect x="177.634" y="195.398" width="17.7634" height="17.7634" fill="white"/>
<rect x="195.398" y="177.634" width="17.7634" height="17.7634" fill="white"/>
<rect x="230.925" y="124.344" width="17.7634" height="17.7634" fill="white"/>
<rect x="124.344" y="124.344" width="17.7634" height="17.7634" fill="white"/>
<rect x="248.688" y="124.344" width="17.7634" height="17.7634" fill="white"/>
<rect x="106.581" y="124.344" width="17.7634" height="17.7634" fill="white"/>
<rect x="213.161" y="71.0537" width="17.7634" height="17.7634" fill="white"/>
<rect x="213.161" y="53.2903" width="17.7634" height="17.7634" fill="white"/>
<rect x="142.107" y="71.0537" width="17.7634" height="17.7634" fill="white"/>
<rect x="142.107" y="53.2903" width="17.7634" height="17.7634" fill="white"/>
<rect x="177.634" y="88.8172" width="17.7634" height="17.7634" fill="white"/>
<rect x="177.634" y="71.0537" width="17.7634" height="17.7634" fill="white"/>
<rect x="177.634" y="53.2903" width="17.7634" height="17.7634" fill="white"/>
<rect x="248.688" y="142.107" width="17.7634" height="17.7634" fill="white"/>
<rect x="248.688" y="159.871" width="17.7634" height="17.7634" fill="white"/>
<rect x="106.581" y="142.107" width="17.7634" height="17.7634" fill="white"/>
<rect x="124.344" y="159.871" width="17.7634" height="17.7634" fill="white"/>
<rect x="230.925" y="159.871" width="17.7634" height="17.7634" fill="white"/>
<rect x="106.581" y="159.871" width="17.7634" height="17.7634" fill="white"/>
<rect x="159.871" y="177.634" width="17.7634" height="17.7634" fill="white"/>
<rect x="177.634" y="177.634" width="17.7634" height="17.7634" fill="white"/>
<rect x="177.634" y="213.161" width="17.7634" height="17.7634" fill="white"/>
<rect x="230.925" y="213.161" width="17.7634" height="17.7634" fill="white"/>
<rect x="213.161" y="230.925" width="17.7634" height="17.7634" fill="white"/>
<rect x="195.398" y="230.925" width="17.7634" height="17.7634" fill="white"/>
<rect x="124.344" y="216.492" width="17.7634" height="17.7634" fill="white"/>
<rect x="142.107" y="230.925" width="17.7634" height="17.7634" fill="white"/>
<rect x="159.871" y="230.925" width="17.7634" height="17.7634" fill="white"/>
<rect x="159.871" y="266.451" width="17.7634" height="17.7634" fill="white"/>
<rect x="142.107" y="266.451" width="17.7634" height="17.7634" fill="white"/>
<rect x="266.451" y="248.688" width="17.7634" height="17.7634" fill="white"/>
<rect x="248.688" y="266.451" width="17.7634" height="17.7634" fill="white"/>
<rect x="284.215" y="248.688" width="17.7634" height="17.7634" fill="white"/>
<rect x="301.978" y="230.925" width="17.7634" height="17.7634" fill="white"/>
<rect x="88.8171" y="248.688" width="17.7634" height="17.7634" fill="white"/>
<rect x="71.0537" y="248.688" width="17.7634" height="17.7634" fill="white"/>
<rect x="53.2903" y="230.925" width="17.7634" height="17.7634" fill="white"/>
<rect x="35.5269" y="195.398" width="17.7634" height="17.7634" fill="white"/>
<rect x="354.158" y="195.398" width="17.7634" height="17.7634" fill="white"/>
<rect x="337.505" y="195.398" width="17.7634" height="17.7634" fill="white"/>
<rect x="336.395" y="159.871" width="17.7634" height="17.7634" fill="white"/>
<rect x="354.158" y="159.871" width="17.7634" height="17.7634" fill="white"/>
<rect x="301.978" y="159.871" width="17.7634" height="17.7634" fill="white"/>
<rect x="301.978" y="195.398" width="17.7634" height="17.7634" fill="white"/>
<rect x="53.2903" y="159.871" width="17.7634" height="17.7634" fill="white"/>
<rect x="53.2903" y="195.398" width="17.7634" height="17.7634" fill="white"/>
<rect y="159.871" width="17.7634" height="17.7634" fill="white"/>
<rect x="17.7634" y="159.871" width="17.7634" height="17.7634" fill="white"/>
<rect y="195.398" width="17.7634" height="17.7634" fill="white"/>
<rect x="17.7634" y="195.398" width="17.7634" height="17.7634" fill="white"/>
<rect x="35.5269" y="177.634" width="17.7634" height="17.7634" fill="white"/>
<rect x="35.5269" y="159.871" width="17.7634" height="17.7634" fill="white"/>
<rect x="35.5269" y="142.107" width="17.7634" height="17.7634" fill="white"/>
<rect x="319.742" y="124.344" width="17.7634" height="17.7634" fill="white"/>
<rect x="319.742" y="106.581" width="17.7634" height="17.7634" fill="white"/>
<rect x="319.742" y="213.161" width="17.7634" height="17.7634" fill="white"/>
<rect x="319.742" y="195.398" width="17.7634" height="17.7634" fill="white"/>
<rect x="319.742" y="177.634" width="17.7634" height="17.7634" fill="white"/>
<rect x="319.742" y="159.871" width="17.7634" height="17.7634" fill="white"/>
<rect x="319.742" y="142.107" width="17.7634" height="17.7634" fill="white"/>
<rect x="284.215" y="35.5269" width="17.7634" height="17.7634" fill="white"/>
<rect x="284.215" y="53.2903" width="17.7634" height="17.7634" fill="white"/>
<rect x="301.978" y="71.0537" width="17.7634" height="17.7634" fill="white"/>
<rect x="301.978" y="88.8172" width="17.7634" height="17.7634" fill="white"/>
<rect x="159.871" y="35.5269" width="17.7634" height="17.7634" fill="white"/>
<rect x="177.634" y="35.5269" width="17.7634" height="17.7634" fill="white"/>
<rect x="195.398" y="35.5269" width="17.7634" height="17.7634" fill="white"/>
<rect x="213.161" y="35.5269" width="17.7634" height="17.7634" fill="white"/>
<rect x="230.925" y="17.7634" width="17.7634" height="17.7634" fill="white"/>
<rect x="248.688" width="17.7634" height="17.7634" fill="white"/>
<rect x="266.451" y="17.7634" width="17.7634" height="17.7634" fill="white"/>
<rect x="124.344" y="17.7634" width="17.7634" height="17.7634" fill="white"/>
<rect x="106.581" width="17.7634" height="17.7634" fill="white"/>
<rect x="88.8171" y="17.7634" width="17.7634" height="17.7634" fill="white"/>
<rect x="142.107" y="35.5269" width="17.7634" height="17.7634" fill="white"/>
</svg>
